<svg width="20" height="20" viewBox="0 0 20 20" fill="none" xmlns="http://www.w3.org/2000/svg">
<path d="M16.2188 2.54889H17.3907V3.72076H16.2188V2.54889Z" fill="#0061DF"/>
<path d="M18.5408 15.4396C17.8592 14.9857 17.0415 14.8244 16.2386 14.9855L13.0805 15.6486C13.2659 14.7476 12.7955 13.8363 11.9321 13.498L8.55254 12.1603C7.20613 11.6275 5.71113 11.595 4.34094 12.0696L0 13.5909V19.3935L4.96934 17.7262L11.017 20L20 18.148L19.8477 17.3885C19.6866 16.5856 19.2225 15.8935 18.5408 15.4396ZM11.1124 18.7819L4.99168 16.4805L1.17379 17.7615V14.4234L4.72711 13.1781C5.83004 12.7961 7.0352 12.8223 8.12055 13.2518L11.502 14.5902C11.8529 14.7276 12.0321 15.1435 11.9017 15.5171C11.8336 15.7124 11.6956 15.8661 11.5134 15.9499C11.3438 16.0278 11.1562 16.0339 10.9855 15.9669L6.89266 14.3631L6.46441 15.456L10.5573 17.0599C10.8827 17.1874 11.2288 17.2193 11.5643 17.1566L11.5663 17.166L16.4721 16.136C16.9666 16.0375 17.4704 16.1371 17.8904 16.4167C18.1999 16.6228 18.4367 16.9084 18.5798 17.2424L11.1124 18.7819Z" fill="#0061DF"/>
<path d="M9.97236 10.9817C10.1656 11.038 10.3628 11.0655 10.5584 11.0654C11.106 11.0654 11.6409 10.8504 12.0393 10.4519L15.044 7.44719L16.0781 8.48129L19.1678 5.39164C19.7042 4.85516 19.9997 4.14184 19.9997 3.38309C19.9997 2.62434 19.7042 1.91102 19.1677 1.37453L18.6251 0.831953C18.0887 0.295469 17.3753 0 16.6166 0C15.8578 0 15.1445 0.295469 14.608 0.831953L11.5184 3.9216L12.5525 4.95566L7.3042 10.2039L9.97236 10.9817ZM13.1757 3.9216L15.4367 1.66059C15.7518 1.34543 16.1708 1.17188 16.6166 1.17188C17.0623 1.17188 17.4814 1.34543 17.7965 1.66059L18.3391 2.20316C18.6543 2.51832 18.8278 2.93738 18.8278 3.38309C18.8278 3.82879 18.6543 4.24785 18.3391 4.56301L16.0781 6.82398L13.1757 3.9216ZM14.2154 6.61859L11.2106 9.62328C10.9725 9.86145 10.6237 9.9509 10.3003 9.8566L9.5326 9.63285L13.3811 5.78434L14.2154 6.61859Z" fill="#0061DF"/>
</svg>
