<svg width="19" height="19" viewBox="0 0 19 19" fill="none" xmlns="http://www.w3.org/2000/svg">
<path d="M18.2733 7.61208L17.8592 7.17362L16.4058 3.25588C16.1581 2.59413 15.5248 2.15567 14.8184 2.15161H4.43739C3.73098 2.15161 3.09765 2.59413 2.85 3.25588L1.41688 7.1249L0.820086 7.67704C0.300427 8.11956 0 8.76913 0 9.45118V15.1593C0.00405983 16.0931 0.763248 16.8482 1.69701 16.8482H2.7688C3.70256 16.8482 4.46175 16.0931 4.46581 15.1593V14.3311H14.5342V15.1593C14.5382 16.0931 15.2974 16.8482 16.2312 16.8482H17.303C18.2368 16.8482 18.9959 16.0931 19 15.1593V9.30097C18.9959 8.66358 18.7361 8.0546 18.2733 7.61208ZM3.61325 3.53195C3.74316 3.18687 4.07201 2.96358 4.43739 2.96358H14.8224C15.1878 2.96358 15.5167 3.19093 15.6466 3.53195L16.9132 6.94221H15.9673C15.744 5.41977 14.3271 4.36828 12.8047 4.59563C11.5908 4.77426 10.6368 5.72832 10.4581 6.94221H2.34658L3.61325 3.53195ZM15.1391 6.94221H11.2782C11.5015 5.87447 12.5489 5.19242 13.6167 5.41571C14.3799 5.57811 14.9767 6.1749 15.1391 6.94221ZM3.65385 15.1593C3.64979 15.6465 3.25598 16.0362 2.7688 16.0362H1.69701C1.20983 16.0362 0.816026 15.6465 0.811966 15.1593V14.0956C1.05556 14.254 1.37628 14.3311 1.69701 14.3311H3.65385V15.1593ZM18.188 15.1593C18.184 15.6465 17.7902 16.0362 17.303 16.0362H16.2312C15.744 16.0362 15.3502 15.6424 15.3462 15.1593V14.3311H17.303C17.6237 14.3311 17.9444 14.254 18.188 14.0956V15.1593ZM17.303 13.5191H1.69701C1.21389 13.5232 0.816026 13.1375 0.811966 12.6503V9.45118C0.811966 9.0046 1.0109 8.57832 1.35192 8.29007C1.35598 8.28601 1.3641 8.27789 1.36816 8.27383L1.9203 7.75418H17.2949L17.6846 8.17234C17.6887 8.18046 17.7009 8.18452 17.7049 8.19264C18.0094 8.48088 18.184 8.88281 18.184 9.30097V12.6503H18.188C18.184 13.1334 17.7861 13.5232 17.303 13.5191Z" fill="#696969"/>
<path d="M5.35906 9.37817H2.31419C2.0909 9.37817 1.9082 9.56087 1.9082 9.78416V11.8953C1.9082 12.1186 2.0909 12.3013 2.31419 12.3013H5.35906C5.58235 12.3013 5.76504 12.1186 5.76504 11.8953V9.78416C5.76504 9.56087 5.58235 9.37817 5.35906 9.37817ZM4.95308 11.4893H2.72017V10.1901H4.95308V11.4893Z" fill="#696969"/>
<path d="M16.686 9.37817H13.6411C13.4178 9.37817 13.2351 9.56087 13.2351 9.78416V11.8953C13.2351 12.1186 13.4178 12.3013 13.6411 12.3013H16.686C16.9093 12.3013 17.0919 12.1186 17.0919 11.8953V9.78416C17.0919 9.56087 16.9093 9.37817 16.686 9.37817ZM16.28 11.4893H14.0471V10.1901H16.28V11.4893Z" fill="#696969"/>
<path d="M11.4608 11.0833H7.53904C7.31575 11.0833 7.13306 11.2659 7.13306 11.4892C7.13306 11.7125 7.31575 11.8952 7.53904 11.8952H11.4608C11.6841 11.8952 11.8668 11.7125 11.8668 11.4892C11.8668 11.2659 11.6841 11.0833 11.4608 11.0833Z" fill="#696969"/>
<path d="M11.4608 9.82471H7.53904C7.31575 9.82471 7.13306 10.0074 7.13306 10.2307C7.13306 10.454 7.31575 10.6367 7.53904 10.6367H11.4608C11.6841 10.6367 11.8668 10.454 11.8668 10.2307C11.8668 10.0074 11.6841 9.82471 11.4608 9.82471Z" fill="#696969"/>
</svg>
