<svg width="14" height="13" viewBox="0 0 14 13" fill="none" xmlns="http://www.w3.org/2000/svg">
<path d="M6.89844 3.2959C5.14844 3.2959 3.75391 4.71777 3.75391 6.44043C3.75391 8.19043 5.14844 9.58496 6.89844 9.58496C8.62109 9.58496 10.043 8.19043 10.043 6.44043C10.043 4.71777 8.62109 3.2959 6.89844 3.2959ZM6.89844 8.49121C5.77734 8.49121 4.84766 7.58887 4.84766 6.44043C4.84766 5.31934 5.75 4.41699 6.89844 4.41699C8.01953 4.41699 8.92188 5.31934 8.92188 6.44043C8.92188 7.58887 8.01953 8.49121 6.89844 8.49121ZM10.8906 3.18652C10.8906 2.77637 10.5625 2.44824 10.1523 2.44824C9.74219 2.44824 9.41406 2.77637 9.41406 3.18652C9.41406 3.59668 9.74219 3.9248 10.1523 3.9248C10.5625 3.9248 10.8906 3.59668 10.8906 3.18652ZM12.9688 3.9248C12.9141 2.94043 12.6953 2.06543 11.9844 1.35449C11.2734 0.643555 10.3984 0.424805 9.41406 0.370117C8.40234 0.31543 5.36719 0.31543 4.35547 0.370117C3.37109 0.424805 2.52344 0.643555 1.78516 1.35449C1.07422 2.06543 0.855469 2.94043 0.800781 3.9248C0.746094 4.93652 0.746094 7.97168 0.800781 8.9834C0.855469 9.96777 1.07422 10.8154 1.78516 11.5537C2.52344 12.2646 3.37109 12.4834 4.35547 12.5381C5.36719 12.5928 8.40234 12.5928 9.41406 12.5381C10.3984 12.4834 11.2734 12.2646 11.9844 11.5537C12.6953 10.8154 12.9141 9.96777 12.9688 8.9834C13.0234 7.97168 13.0234 4.93652 12.9688 3.9248ZM11.6562 10.0498C11.4648 10.5967 11.0273 11.0068 10.5078 11.2256C9.6875 11.5537 7.77344 11.4717 6.89844 11.4717C5.99609 11.4717 4.08203 11.5537 3.28906 11.2256C2.74219 11.0068 2.33203 10.5967 2.11328 10.0498C1.78516 9.25684 1.86719 7.34277 1.86719 6.44043C1.86719 5.56543 1.78516 3.65137 2.11328 2.83105C2.33203 2.31152 2.74219 1.90137 3.28906 1.68262C4.08203 1.35449 5.99609 1.43652 6.89844 1.43652C7.77344 1.43652 9.6875 1.35449 10.5078 1.68262C11.0273 1.87402 11.4375 2.31152 11.6562 2.83105C11.9844 3.65137 11.9023 5.56543 11.9023 6.44043C11.9023 7.34277 11.9844 9.25684 11.6562 10.0498Z" fill="white"/>
</svg>
