<svg width="13" height="13" viewBox="0 0 13 13" fill="none" xmlns="http://www.w3.org/2000/svg">
<path d="M3.30664 12.6904V4.51465H0.763672V12.6904H3.30664ZM2.02148 3.4209C2.8418 3.4209 3.49805 2.7373 3.49805 1.91699C3.49805 1.12402 2.8418 0.467773 2.02148 0.467773C1.22852 0.467773 0.572266 1.12402 0.572266 1.91699C0.572266 2.7373 1.22852 3.4209 2.02148 3.4209ZM12.7949 12.6904H12.8223V8.20605C12.8223 6.01855 12.3301 4.32324 9.75977 4.32324C8.5293 4.32324 7.70898 5.00684 7.35352 5.63574H7.32617V4.51465H4.89258V12.6904H7.43555V8.64355C7.43555 7.57715 7.62695 6.56543 8.93945 6.56543C10.252 6.56543 10.2793 7.76855 10.2793 8.72559V12.6904H12.7949Z" fill="white"/>
</svg>
