<svg width="20" height="20" viewBox="0 0 20 20" fill="none" xmlns="http://www.w3.org/2000/svg">
<g clip-path="url(#clip0_148_827)">
<path d="M11.7508 7.58881L11.2289 8.11062C10.5995 7.78306 9.83073 7.90322 9.30462 8.42937C8.95758 8.77641 8.80826 9.14774 8.835 9.60136C8.86431 9.99435 8.929 10.2629 9.11056 10.7469C9.37294 11.4864 9.37996 11.8175 9.1384 12.0591C8.9849 12.2126 8.81751 12.2997 8.64078 12.3179C8.41964 12.335 8.2282 12.2545 8.03855 12.0648C7.67956 11.7058 7.69119 11.2941 8.08012 10.5963L8.21773 10.3494L7.09587 10.0736L7.01213 10.2008C6.54786 10.9062 6.51616 11.7419 6.91657 12.4232L6.3999 12.9398L7.1636 13.7035L7.68456 13.1826C7.98862 13.3639 8.32497 13.4472 8.68603 13.4306C9.16994 13.4112 9.59842 13.2184 9.95952 12.8572L9.96588 12.8505C10.3727 12.4073 10.5108 11.9754 10.4278 11.408C10.3786 11.0516 10.3212 10.8704 10.2075 10.5294L10.0592 10.0614C10.035 9.97885 10.0143 9.86701 9.98817 9.72569L9.98579 9.71289C9.95429 9.45567 10.0239 9.32938 10.1545 9.1988C10.3486 9.00463 10.6543 8.99436 10.8358 9.17585C11.0341 9.37416 11.1169 9.56927 10.987 10.0316L10.9249 10.2527L12.0103 10.4847L12.0705 10.3001C12.2419 9.77449 12.2143 9.29714 11.9886 8.87842L12.5145 8.35246L11.7508 7.58881Z" fill="#0061DF"/>
<path d="M20 0.838087L19.1742 0.00759888L16.916 2.25305L9.59496 1.40339L0 10.9858L8.99492 19.9925L18.5898 10.41L17.7485 3.07686L20 0.838087ZM17.3618 9.98131L8.99597 18.3362L1.65625 10.9869L10.0221 2.63195L15.8543 3.30882L14.6815 4.475C14.4724 4.38205 14.2444 4.33271 14.0086 4.33271C13.5664 4.33271 13.1506 4.50478 12.8377 4.81728C12.1912 5.46293 12.1905 6.51421 12.8361 7.16071C13.1492 7.47419 13.5656 7.64681 14.0086 7.64681C14.4509 7.64681 14.8667 7.47473 15.1796 7.16224C15.6832 6.65931 15.7948 5.91038 15.5145 5.29826L16.6904 4.12901L17.3618 9.98131ZM14.352 6.33358C14.2603 6.42521 14.1383 6.47568 14.0086 6.47568C13.8787 6.47568 13.7566 6.42505 13.6648 6.33315C13.4755 6.14359 13.4757 5.83527 13.6652 5.64593C13.757 5.55427 13.879 5.50384 14.0086 5.50384C14.1386 5.50384 14.2607 5.55447 14.3525 5.64636C14.5418 5.83593 14.5416 6.14425 14.352 6.33358Z" fill="#0061DF"/>
</g>
<defs>
<clipPath id="clip0_148_827">
<rect width="20" height="20" fill="white"/>
</clipPath>
</defs>
</svg>
