<svg width="14" height="13" viewBox="0 0 14 13" fill="none" xmlns="http://www.w3.org/2000/svg">
<path d="M12.5698 3.59668C13.1167 3.18652 13.6089 2.69434 13.9917 2.12012C13.4995 2.33887 12.9253 2.50293 12.3511 2.55762C12.9526 2.20215 13.3901 1.65527 13.6089 0.97168C13.062 1.2998 12.4331 1.5459 11.8042 1.68262C11.2573 1.1084 10.519 0.780273 9.69873 0.780273C8.11279 0.780273 6.82764 2.06543 6.82764 3.65137C6.82764 3.87012 6.85498 4.08887 6.90967 4.30762C4.53076 4.1709 2.39795 3.02246 0.976074 1.2998C0.72998 1.70996 0.593262 2.20215 0.593262 2.74902C0.593262 3.7334 1.08545 4.6084 1.87842 5.12793C1.41357 5.10059 0.94873 4.99121 0.565918 4.77246V4.7998C0.565918 6.19434 1.55029 7.34277 2.86279 7.61621C2.64404 7.6709 2.37061 7.72559 2.12451 7.72559C1.93311 7.72559 1.76904 7.69824 1.57764 7.6709C1.93311 8.81934 2.99951 9.63965 4.25732 9.66699C3.27295 10.4326 2.04248 10.8975 0.702637 10.8975C0.456543 10.8975 0.237793 10.8701 0.019043 10.8428C1.27686 11.6631 2.78076 12.1279 4.42139 12.1279C9.69873 12.1279 12.5698 7.78027 12.5698 3.97949C12.5698 3.84277 12.5698 3.7334 12.5698 3.59668Z" fill="white"/>
</svg>
